<svg xmlns="http://www.w3.org/2000/svg" viewBox="0 0 24 24" fill="currentColor" aria-hidden="true" data-slot="icon" height="16px" width="16px">
  <path d="M18.998 3.003h-5a1 1 0 0 0-1 1v16a1 1 0 0 0 1 1h5a2 2 0 0 0 2-2v-14a2 2 0 0 0-2-2M9.008 19.003a1 1 0 0 1 .117 1.993l-.127.007a1 1 0 0 1-.117-1.993zM4.008 19.003a1 1 0 0 1 .117 1.993l-.128.007a1 1 0 0 1-.117-1.993zM4.008 14.002a1 1 0 0 1 .117 1.993l-.128.007a1 1 0 0 1-.117-1.993zM4.008 8.002a1 1 0 0 1 .117 1.993l-.128.007a1 1 0 0 1-.117-1.993zM4.008 3.002a1 1 0 0 1 .117 1.993l-.128.007a1 1 0 0 1-.117-1.993zM9.008 3.002a1 1 0 0 1 .117 1.993l-.127.007a1 1 0 0 1-.117-1.993z"/>
</svg>
