<svg xmlns="http://www.w3.org/2000/svg" fill="none" stroke-linecap="round" stroke-linejoin="round" stroke-width="2" viewBox="0 0 24 24" stroke="currentColor" aria-hidden="true" data-slot="icon">
  <path d="M15 12a1 1 0 1 0 2 0 1 1 0 1 0-2 0M11 8a1 1 0 1 0 2 0 1 1 0 1 0-2 0M11 16a1 1 0 1 0 2 0 1 1 0 1 0-2 0M12 15V9M15 11l-2-2M11 7 9.1 5.1"/>
  <path d="m13.446 2.6 7.955 7.954a2.045 2.045 0 0 1 0 2.892l-7.955 7.955a2.045 2.045 0 0 1-2.892 0l-7.955-7.955a2.045 2.045 0 0 1 0-2.892l7.955-7.955a2.045 2.045 0 0 1 2.892 0z"/>
</svg>
