<svg xmlns="http://www.w3.org/2000/svg" fill="none" stroke-linecap="round" stroke-linejoin="round" viewBox="0 0 24 24" stroke-width="1.5" stroke="currentColor" aria-hidden="true" data-slot="icon" height="16px" width="16px">
  <path d="M11 6a5 3 0 1 0 10 0 5 3 0 1 0-10 0"/>
  <path d="M11 6v4c0 1.657 2.239 3 5 3s5-1.343 5-3V6"/>
  <path d="M11 10v4c0 1.657 2.239 3 5 3s5-1.343 5-3v-4"/>
  <path d="M11 14v4c0 1.657 2.239 3 5 3s5-1.343 5-3v-4M7 9H4.5a1.5 1.5 0 0 0 0 3h1a1.5 1.5 0 0 1 0 3H3M5 15v1m0-8v1"/>
</svg>
