<svg xmlns="http://www.w3.org/2000/svg" fill="none" stroke-linecap="round" stroke-linejoin="round" viewBox="0 0 24 24" stroke-width="1.5" stroke="currentColor" aria-hidden="true" data-slot="icon" height="16px" width="16px">
  <path d="M12.5 20H5a2 2 0 0 1-2-2V9a2 2 0 0 1 2-2h1a2 2 0 0 0 2-2 1 1 0 0 1 1-1h6a1 1 0 0 1 1 1 2 2 0 0 0 2 2h1a2 2 0 0 1 2 2v2"/>
  <path d="M14.933 12.366A3.001 3.001 0 1 0 12 16M21.121 20.121a3 3 0 1 0-4.242 0Q17.506 20.749 19 22q1.577-1.335 2.121-1.879M19 18v.01"/>
</svg>
