<svg xmlns="http://www.w3.org/2000/svg" fill="none" stroke-linecap="round" stroke-linejoin="round" viewBox="0 0 24 24" stroke-width="1.5" stroke="currentColor" aria-hidden="true" data-slot="icon" height="16px" width="16px">
  <path d="M5 5a2 2 0 0 1 2-2h0a2 2 0 0 1 2 2v2a2 2 0 0 1-2 2h0a2 2 0 0 1-2-2zM5 17a2 2 0 0 1 2-2h0a2 2 0 0 1 2 2v2a2 2 0 0 1-2 2h0a2 2 0 0 1-2-2zM15 5a2 2 0 0 1 2-2h0a2 2 0 0 1 2 2v2a2 2 0 0 1-2 2h0a2 2 0 0 1-2-2zM15 17a2 2 0 0 1 2-2h0a2 2 0 0 1 2 2v2a2 2 0 0 1-2 2h0a2 2 0 0 1-2-2zM9 18h6M9 6h6M12 6.5V6v12"/>
</svg>
