<svg xmlns="http://www.w3.org/2000/svg" fill="none" stroke-linecap="round" stroke-linejoin="round" viewBox="0 0 24 24" stroke-width="1.5" stroke="currentColor" aria-hidden="true" data-slot="icon" height="16px" width="16px">
  <path d="M20.96 16.953q.04-.22.04-.453V8a2 2 0 0 0-2-2h-9M6 6H5a2 2 0 0 0-2 2v8.5A2.5 2.5 0 0 0 5.5 19h1.06a3 3 0 0 0 2.34-1.13l1.54-1.92a2 2 0 0 1 3.12 0l1.54 1.92A3 3 0 0 0 17.44 19h1.06q.233 0 .454-.041"/>
  <path d="M7 12a1 1 0 1 0 2 0 1 1 0 1 0-2 0M16.714 12.7a1 1 0 0 0-1.417-1.411zM3 3l18 18"/>
</svg>
