<svg xmlns="http://www.w3.org/2000/svg" fill="none" stroke-linecap="round" stroke-linejoin="round" viewBox="0 0 24 24" stroke-width="1.5" stroke="currentColor" aria-hidden="true" data-slot="icon" height="16px" width="16px">
  <path d="M19 18a3.5 3.5 0 0 0 0-7h-1c.397-1.768-.285-3.593-1.788-4.787s-3.6-1.575-5.5-1S7.397 7.232 7 9c-2.199-.088-4.155 1.326-4.666 3.373S2.898 16.527 4.9 17.4"/>
  <path d="M8 16a1 1 0 0 1 1-1h6a1 1 0 0 1 1 1v3a1 1 0 0 1-1 1H9a1 1 0 0 1-1-1zM10 15v-2a2 2 0 0 1 3.736-1"/>
</svg>
