<svg xmlns="http://www.w3.org/2000/svg" fill="none" stroke-linecap="round" stroke-linejoin="round" viewBox="0 0 24 24" stroke-width="1.5" stroke="currentColor" aria-hidden="true" data-slot="icon" height="16px" width="16px">
  <path d="M14 3v4a1 1 0 0 0 1 1h4"/>
  <path d="M14 3v4a1 1 0 0 0 1 1h4M5 20.25c0 .414.336.75.75.75H7a1 1 0 0 0 1-1v-1a1 1 0 0 0-1-1H6a1 1 0 0 1-1-1v-1a1 1 0 0 1 1-1h1.25a.75.75 0 0 1 .75.75"/>
  <path d="M5 12V5a2 2 0 0 1 2-2h7l5 5v4M18 15v6h2M13 15a2 2 0 0 1 2 2v2a2 2 0 1 1-4 0v-2a2 2 0 0 1 2-2M14 20l1.5 1.5"/>
</svg>
