<svg xmlns="http://www.w3.org/2000/svg" fill="none" stroke-linecap="round" stroke-linejoin="round" viewBox="0 0 24 24" stroke-width="1.5" stroke="currentColor" aria-hidden="true" data-slot="icon" height="16px" width="16px">
  <path d="M15 11a3 3 0 1 0-3.973 2.839"/>
  <path d="M11.76 21.47a2 2 0 0 1-1.173-.57l-4.244-4.243A8 8 0 1 1 20 11.069"/>
  <path d="m18 22 3.35-3.284a2.143 2.143 0 0 0 .005-3.071 2.24 2.24 0 0 0-3.129-.006l-.224.22-.223-.22a2.24 2.24 0 0 0-3.128-.006 2.143 2.143 0 0 0-.006 3.071z"/>
</svg>
