<svg xmlns="http://www.w3.org/2000/svg" fill="none" stroke-linecap="round" stroke-linejoin="round" viewBox="0 0 24 24" stroke-width="1.5" stroke="currentColor" aria-hidden="true" data-slot="icon" height="16px" width="16px">
  <path d="M15 9a3 3 0 0 1 2.599 1.5h0c.933 1.333 2.133 1.556 3.126 1.556h.291l.77-.044h.213q-1.444 2.888-6.6 3h-.565a3 3 0 0 1 .165-6z"/>
  <path d="M9 9a3 3 0 0 0-2.599 1.5h0c-.933 1.333-2.133 1.556-3.126 1.556h-.291l-.77-.044h-.213q1.445 2.888 6.6 3h.565a3 3 0 0 0-.165-6z"/>
</svg>
