<svg xmlns="http://www.w3.org/2000/svg" fill="none" stroke-linecap="round" stroke-linejoin="round" viewBox="0 0 24 24" stroke-width="1.5" stroke="currentColor" aria-hidden="true" data-slot="icon" height="16px" width="16px">
  <path d="m12.802 2.165 5.575 2.389c.48.206.863.589 1.07 1.07l2.388 5.574c.22.512.22 1.092 0 1.604l-2.389 5.575c-.206.48-.589.863-1.07 1.07l-5.574 2.388c-.512.22-1.092.22-1.604 0l-5.575-2.389a2.04 2.04 0 0 1-1.07-1.07l-2.388-5.574a2.04 2.04 0 0 1 0-1.604l2.389-5.575c.206-.48.589-.863 1.07-1.07l5.574-2.388a2.04 2.04 0 0 1 1.604 0"/>
</svg>
