<svg xmlns="http://www.w3.org/2000/svg" fill="none" stroke-linecap="round" stroke-linejoin="round" viewBox="0 0 24 24" stroke-width="1.5" stroke="currentColor" aria-hidden="true" data-slot="icon" height="16px" width="16px">
  <path d="M12 21a9 9 0 0 1 0-18c4.97 0 9 3.582 9 8 0 1.06-.474 2.078-1.318 2.828S17.693 15 16.5 15H14a2 2 0 0 0-1 3.75A1.3 1.3 0 0 1 12 21"/>
  <path d="M7.5 10.5a1 1 0 1 0 2 0 1 1 0 1 0-2 0M11.5 7.5a1 1 0 1 0 2 0 1 1 0 1 0-2 0M15.5 10.5a1 1 0 1 0 2 0 1 1 0 1 0-2 0"/>
</svg>
