<svg xmlns="http://www.w3.org/2000/svg" fill="none" stroke-linecap="round" stroke-linejoin="round" viewBox="0 0 24 24" stroke-width="1.5" stroke="currentColor" aria-hidden="true" data-slot="icon" height="16px" width="16px">
  <path d="M3 12c.576-.643 1.512-1.017 2.5-1 .988-.017 1.924.357 2.5 1s1.512 1.017 2.5 1c.988.017 1.924-.357 2.5-1M3 16c.576-.643 1.512-1.017 2.5-1 .988-.017 1.924.357 2.5 1s1.512 1.017 2.5 1c.988.017 1.924-.357 2.5-1M3 8c.576-.643 1.512-1.017 2.5-1 .988-.017 1.924.357 2.5 1s1.512 1.017 2.5 1c.988.017 1.924-.357 2.5-1M20 7l-3 5h4l-3 5"/>
</svg>
