<svg xmlns="http://www.w3.org/2000/svg" fill="none" stroke-linecap="round" stroke-linejoin="round" stroke-width="2" viewBox="0 0 24 24" stroke="currentColor" aria-hidden="true" data-slot="icon">
  <path d="M19.5 7A9 9 0 0 0 12 3a8.99 8.99 0 0 0-7.484 4"/>
  <path d="M11.5 3a17 17 0 0 0-1.826 4M12.5 3a17 17 0 0 1 1.828 4M19.5 17a9 9 0 0 1-7.5 4 8.99 8.99 0 0 1-7.484-4"/>
  <path d="M11.5 21a17 17 0 0 1-1.826-4M12.5 21a17 17 0 0 0 1.828-4M2 10l1 4 1.5-4L6 14l1-4M17 10l1 4 1.5-4 1.5 4 1-4M9.5 10l1 4 1.5-4 1.5 4 1-4"/>
</svg>
